<?xml version="1.0" encoding="iso-8859-1"?>
<!-- Generator: Adobe Illustrator 17.1.0, SVG Export Plug-In . SVG Version: 6.00 Build 0)  -->
<!DOCTYPE svg PUBLIC "-//W3C//DTD SVG 1.1//EN" "http://www.w3.org/Graphics/SVG/1.1/DTD/svg11.dtd">
<svg version="1.1" id="Capa_1" xmlns="http://www.w3.org/2000/svg" xmlns:xlink="http://www.w3.org/1999/xlink" x="0px" y="0px"
	 viewBox="0 0 212.283 212.283" style="enable-background:new 0 0 212.283 212.283;" xml:space="preserve">
<path d="M209.368,67.996c-0.275-0.212-4.473-3.405-11.073-5.768c5.193-4.708,7.849-9.265,8.022-9.565
	c1.155-2.016,1.312-4.453,0.422-6.6c-0.889-2.146-2.723-3.76-4.965-4.368c-0.439-0.119-4.457-1.165-10.146-1.165
	c-0.767,0-1.527,0.021-2.283,0.058c2.989-6.33,3.699-11.547,3.743-11.891c0.297-2.305-0.492-4.616-2.135-6.259
	c-1.643-1.644-3.947-2.431-6.259-2.137c-0.344,0.044-5.57,0.755-11.908,3.751c0.343-7.002-1.001-12.103-1.092-12.437
	c-0.608-2.242-2.222-4.075-4.368-4.964c-2.146-0.889-4.584-0.733-6.6,0.422c-0.3,0.172-4.857,2.829-9.565,8.021
	c-2.363-6.6-5.556-10.797-5.768-11.072c-1.42-1.839-3.612-2.915-5.936-2.915s-4.516,1.076-5.936,2.915
	c-0.212,0.274-3.405,4.472-5.768,11.072c-4.708-5.192-9.265-7.849-9.565-8.021c-2.017-1.156-4.453-1.312-6.6-0.422
	c-2.146,0.889-3.76,2.722-4.368,4.964c-0.091,0.334-1.434,5.435-1.092,12.437c-6.337-2.996-11.564-3.707-11.907-3.751
	c-2.303-0.288-4.616,0.493-6.258,2.137c-1.643,1.643-2.432,3.954-2.136,6.258c0.044,0.344,0.754,5.562,3.744,11.892
	c-0.756-0.037-1.516-0.058-2.283-0.058c-5.69,0-9.707,1.046-10.146,1.165c-2.242,0.608-4.075,2.222-4.964,4.368
	s-0.733,4.584,0.422,6.6c0.172,0.3,2.829,4.857,8.022,9.565c-6.599,2.363-10.797,5.556-11.072,5.768
	c-1.839,1.42-2.916,3.612-2.916,5.936s1.077,4.515,2.915,5.936c0.274,0.212,4.473,3.405,11.072,5.768
	c-5.193,4.709-7.85,9.266-8.022,9.567c-1.155,2.016-1.311,4.453-0.421,6.6c0.889,2.146,2.723,3.759,4.965,4.367
	c0.439,0.119,4.455,1.164,10.143,1.164c0,0,0,0,0,0c0.768,0,1.529-0.021,2.285-0.058c-2.99,6.331-3.7,11.549-3.744,11.893
	c-0.296,2.304,0.493,4.615,2.136,6.258c0.249,0.249,0.518,0.471,0.795,0.68c-0.792,1.695-1.587,3.521-2.356,5.484
	c-2.306-8.76-8.779-16.788-19.311-23.896C51.117,96.912,35.161,94.648,24.588,94.648c-11.354,0-19.137,2.555-19.462,2.663
	c-3.222,1.076-5.319,4.183-5.111,7.573c0.082,1.339,2.361,33.035,32.808,53.585c9.052,6.109,17.692,9.207,25.681,9.208
	c0.001,0,0.001,0,0.002,0c7.687,0,13.659-2.885,17.852-6.271c1.846,1.905,3.707,4.876,4.16,9.32
	c0.981,17.952,5.458,34.097,5.706,34.979c0.91,3.234,3.86,5.469,7.22,5.469h12.288c0.008,0,0.016,0,0.02,0
	c4.143,0,7.5-3.357,7.5-7.5c0-1.007-0.198-1.968-0.558-2.845c-1.101-3.467-7.998-26.393-4.062-44.382
	c1.238-5.655,3.018-10.583,4.912-14.729c0.305,0.038,0.611,0.063,0.917,0.063c1.292,0,2.579-0.334,3.729-0.993
	c0.3-0.172,4.857-2.829,9.565-8.021c2.363,6.6,5.556,10.797,5.768,11.072c1.42,1.839,3.612,2.915,5.936,2.915
	s4.516-1.076,5.936-2.915c0.212-0.274,3.405-4.472,5.768-11.072c4.708,5.192,9.265,7.849,9.565,8.021
	c1.15,0.659,2.438,0.993,3.729,0.993c0.973,0,1.948-0.189,2.87-0.571c2.146-0.889,3.76-2.722,4.368-4.964
	c0.091-0.334,1.434-5.435,1.092-12.437c6.338,2.996,11.564,3.706,11.908,3.75c0.319,0.041,0.638,0.062,0.955,0.062
	c1.977,0,3.889-0.781,5.304-2.197c1.643-1.643,2.432-3.954,2.135-6.259c-0.044-0.344-0.754-5.562-3.743-11.892
	c0.756,0.037,1.518,0.058,2.285,0.058c0.001,0,0.001,0,0.001,0c5.688,0,9.704-1.045,10.144-1.164
	c2.241-0.608,4.075-2.222,4.964-4.368c0.89-2.146,0.733-4.583-0.421-6.599c-0.173-0.301-2.829-4.858-8.022-9.567
	c6.6-2.363,10.798-5.556,11.072-5.768c1.839-1.421,2.915-3.612,2.915-5.936S211.206,69.416,209.368,67.996z M169.026,79.065
	c-0.033,0.185-0.05,0.371-0.068,0.557c-0.017,0.09-0.031,0.182-0.049,0.272c-0.063,0.201-0.123,0.402-0.169,0.609
	c-0.378,1.703-0.896,3.358-1.542,4.916c-0.646,1.559-1.449,3.097-2.388,4.572c-0.064,0.101-0.117,0.207-0.175,0.31
	c-0.131,0.201-0.261,0.401-0.397,0.599c-0.08,0.102-0.165,0.199-0.24,0.306c-1.007,1.436-2.12,2.767-3.311,3.955
	c-1.19,1.191-2.521,2.304-3.954,3.31c-0.106,0.074-0.203,0.158-0.304,0.238c-0.199,0.137-0.402,0.268-0.604,0.4
	c-0.102,0.058-0.207,0.109-0.306,0.173c-1.479,0.94-3.017,1.744-4.571,2.388c-1.556,0.645-3.21,1.163-4.917,1.542
	c-0.206,0.046-0.408,0.106-0.608,0.169c-0.09,0.019-0.182,0.032-0.273,0.049c-0.186,0.018-0.372,0.036-0.558,0.068
	c-3.441,0.607-6.826,0.607-10.268,0c-0.184-0.032-0.368-0.05-0.553-0.067c-0.092-0.018-0.186-0.031-0.279-0.05
	c-0.2-0.063-0.401-0.123-0.607-0.169c-1.707-0.379-3.361-0.897-4.919-1.543c-1.551-0.643-3.088-1.445-4.568-2.387
	c-0.102-0.064-0.209-0.118-0.313-0.177c-0.198-0.129-0.396-0.257-0.59-0.391c-0.103-0.082-0.203-0.167-0.311-0.244
	c-1.436-1.007-2.767-2.12-3.955-3.31c-1.191-1.19-2.305-2.521-3.311-3.955c-0.074-0.105-0.157-0.201-0.236-0.301
	c-0.137-0.2-0.27-0.403-0.402-0.606c-0.058-0.103-0.11-0.208-0.174-0.307c-0.938-1.476-1.742-3.014-2.387-4.569
	c-0.645-1.557-1.164-3.213-1.544-4.923c-0.046-0.206-0.105-0.406-0.168-0.604c-0.018-0.091-0.032-0.184-0.049-0.274
	c-0.018-0.185-0.035-0.37-0.068-0.554c-0.303-1.725-0.457-3.452-0.457-5.136c0-1.683,0.154-3.411,0.458-5.136
	c0.033-0.188,0.051-0.375,0.069-0.563c0.017-0.087,0.03-0.176,0.047-0.263c0.063-0.199,0.123-0.399,0.168-0.605
	c0.38-1.71,0.899-3.366,1.544-4.923c0.645-1.555,1.447-3.092,2.387-4.569c0.064-0.101,0.117-0.206,0.175-0.309
	c0.131-0.201,0.261-0.402,0.397-0.599c0.08-0.102,0.165-0.2,0.24-0.307c1.006-1.434,2.119-2.765,3.311-3.955
	c1.191-1.192,2.521-2.305,3.953-3.308c0.105-0.074,0.201-0.158,0.302-0.237c0.226-0.155,0.456-0.304,0.686-0.454
	c0.076-0.041,0.155-0.077,0.229-0.124c1.478-0.939,3.015-1.742,4.572-2.387c1.554-0.645,3.208-1.164,4.919-1.544
	c0.202-0.045,0.399-0.104,0.595-0.166c0.093-0.019,0.188-0.032,0.281-0.05c0.187-0.018,0.373-0.036,0.559-0.068
	c3.441-0.607,6.826-0.607,10.268,0c0.183,0.032,0.366,0.049,0.55,0.067c0.096,0.018,0.193,0.032,0.289,0.051
	c0.196,0.062,0.394,0.121,0.596,0.166c1.711,0.38,3.366,0.899,4.923,1.545c1.556,0.645,3.094,1.447,4.569,2.386
	c0.073,0.046,0.15,0.082,0.226,0.122c0.233,0.151,0.466,0.302,0.695,0.459c0.099,0.078,0.193,0.161,0.297,0.233
	c1.43,1.001,2.76,2.114,3.954,3.309c1.188,1.188,2.302,2.519,3.309,3.954c0.076,0.108,0.161,0.207,0.242,0.31
	c0.134,0.195,0.263,0.394,0.393,0.592c0.059,0.104,0.112,0.211,0.177,0.313c0.939,1.477,1.743,3.015,2.387,4.568
	c0.646,1.562,1.165,3.217,1.543,4.92c0.046,0.207,0.106,0.41,0.17,0.61c0.018,0.091,0.031,0.183,0.049,0.273
	c0.018,0.185,0.035,0.369,0.068,0.553c0.304,1.723,0.457,3.45,0.457,5.135C169.483,75.617,169.33,77.344,169.026,79.065z
	 M139.459,91.637c-9.763,0-17.705-7.943-17.705-17.706s7.942-17.705,17.705-17.705s17.706,7.942,17.706,17.705
	S149.221,91.637,139.459,91.637z"/>
<g>
</g>
<g>
</g>
<g>
</g>
<g>
</g>
<g>
</g>
<g>
</g>
<g>
</g>
<g>
</g>
<g>
</g>
<g>
</g>
<g>
</g>
<g>
</g>
<g>
</g>
<g>
</g>
<g>
</g>
</svg>
