<?xml version="1.0" encoding="iso-8859-1"?>
<!-- Generator: Adobe Illustrator 18.0.0, SVG Export Plug-In . SVG Version: 6.00 Build 0)  -->
<!DOCTYPE svg PUBLIC "-//W3C//DTD SVG 1.1//EN" "http://www.w3.org/Graphics/SVG/1.1/DTD/svg11.dtd">
<svg version="1.1" id="Capa_1" xmlns="http://www.w3.org/2000/svg" xmlns:xlink="http://www.w3.org/1999/xlink" x="0px" y="0px"
	 viewBox="0 0 249.245 249.245" style="enable-background:new 0 0 249.245 249.245;" xml:space="preserve">
<g>
	<path d="M247.11,173.132c-16.058-3.546-27.496-10.058-34.078-26.193c-1.306-3.201-5.448-3.369-6.704,0
		c-2.715,7.279-8.436,13.743-15.363,17.187c1.286-9.745,0.058-18.87-3.053-27.073c5.684-0.514,11.661-2.346,16.402-5.038
		c3.042-1.727,5.939-7.815,0.375-8.045c-1.222-0.051-2.284,1.298-1.886,2.476c0.366,1.081-7.716,4.061-8.603,4.367
		c-2.682,0.923-5.409,1.447-8.154,1.982c-2.971-6.195-7.006-11.802-11.928-16.606c2.822-3.568,5.586-7.186,8.308-10.829
		c3.436-4.599,7.75-9.208,10.159-14.427c1.137-2.464-1.728-4.993-3.867-2.983c-3.892,3.657-6.654,8.662-9.685,13.031
		c-2.794,4.028-5.557,8.08-8.246,12.179c-4.557-3.851-9.677-7.109-15.205-9.642c0.113-0.739,0.224-1.476,0.334-2.213
		c0.497-0.008,0.986-0.174,1.301-0.749c2.363-4.314,3.044-9.453,4.152-14.215c1.122-4.823,2.887-9.84,2.507-14.822
		c-0.155-2.025-2.982-3.154-4.078-1.105c-2.363,4.419-2.798,9.589-3.715,14.469c-0.262,1.396-0.569,2.817-0.872,4.246
		c-2.608,3.298-3.267,8.602-2.978,12.963c-8.868-3.504-18.584-5.268-28.507-4.783c0.566-4.033,0.771-8.127,0.75-12.191
		c-0.022-4.345,0.187-8.778-1.694-12.756c-0.796-1.683-3.622-1.256-4,0.523c-0.857,4.035,0.141,8.156,0.467,12.233
		c0.33,4.127,0.413,8.272,0.718,12.396c-0.085,0.009-0.168,0.005-0.253,0.014c-6.499,0.709-13.425,2.622-20.189,5.44
		c-2.442-8.175-5.559-18.108-11.052-24.373c-1.683-1.918-4.6,0.143-4.069,2.369c1.039,4.355,3.602,8.292,5.506,12.321
		c1.82,3.853,3.528,7.753,5.273,11.639c-6.584,3.184-12.891,7.209-18.3,11.985c-2.116-1.543-4.228-3.092-6.262-4.748
		c-2.932-2.386-6.034-6.596-9.854-7.292c-1.587-0.289-3.044,0.95-2.625,2.624c0.977,3.901,5.451,6.386,8.517,8.67
		c2.069,1.542,4.212,3.025,6.419,4.399c-5.29,5.471-9.426,11.68-11.644,18.42c-2.333-1.15-4.697-2.24-7.063-3.324
		c-3.125-1.432-6.401-3.52-9.822-3.991c-3.015-0.415-4.469,2.946-2.034,4.826c2.735,2.11,6.516,2.983,9.729,4.208
		c2.632,1.002,5.264,2.001,7.929,2.909c-1.073,5.649-0.794,11.604,1.237,17.745c-7.141-1.992-11.493-7.071-13.41-16.588
		c-0.71-3.529-5.693-3.036-6.664,0c-5.578,17.434-17.266,33.876-38.453,24.612c-1.932-0.845-3.865,1.307-2.32,3.008
		c16.597,18.274,35.107-0.381,43.797-17.258c11.057,21.958,43.312,20.217,51.489-1.36c4.612,8.974,13.614,15.785,23.912,16.751
		c13.724,1.286,26.84-7.576,31.81-19.984c11.452,26.358,43.388,31.613,58.207,5.232c7.654,13.372,20.244,22.65,36.538,23.244
		C249.655,179.138,250.432,173.865,247.11,173.132z"/>
</g>
<g>
</g>
<g>
</g>
<g>
</g>
<g>
</g>
<g>
</g>
<g>
</g>
<g>
</g>
<g>
</g>
<g>
</g>
<g>
</g>
<g>
</g>
<g>
</g>
<g>
</g>
<g>
</g>
<g>
</g>
</svg>
